<svg width="1260" height="224" viewBox="0 0 1260 224" fill="none" xmlns="http://www.w3.org/2000/svg">
<path d="M90 105C90 122.121 76.1208 136 59 136C41.8792 136 28 122.121 28 105C28 87.8792 41.8792 74 59 74C76.1208 74 90 87.8792 90 105Z" fill="#F05365"/>
<path d="M154 126C154 133.18 148.18 139 141 139C133.82 139 128 133.18 128 126C128 118.82 133.82 113 141 113C148.18 113 154 118.82 154 126Z" fill="#F05365"/>
<path d="M110 31C110 42.0457 101.046 51 90 51C78.9543 51 70 42.0457 70 31C70 19.9543 78.9543 11 90 11C101.046 11 110 19.9543 110 31Z" fill="#F05365"/>
<path d="M55 192C55 203.046 46.0457 212 35 212C23.9543 212 15 203.046 15 192C15 180.954 23.9543 172 35 172C46.0457 172 55 180.954 55 192Z" fill="#F05365"/>
<path d="M28 143C28 161.225 13.2254 176 -5 176C-23.2254 176 -38 161.225 -38 143C-38 124.775 -23.2254 110 -5 110C13.2254 110 28 124.775 28 143Z" fill="#F05365"/>
<path d="M198 117C198 120.866 194.866 124 191 124C187.134 124 184 120.866 184 117C184 113.134 187.134 110 191 110C194.866 110 198 113.134 198 117Z" fill="#F05365"/>
<path d="M59 22C59 46.3005 39.3005 66 15 66C-9.30053 66 -29 46.3005 -29 22C-29 -2.30053 -9.30053 -22 15 -22C39.3005 -22 59 -2.30053 59 22Z" fill="#F05365"/>
<path d="M155 74C155 88.9117 142.912 101 128 101C113.088 101 101 88.9117 101 74C101 59.0883 113.088 47 128 47C142.912 47 155 59.0883 155 74Z" fill="#F05365"/>
<path d="M129 172C129 186.912 116.912 199 102 199C87.0883 199 75 186.912 75 172C75 157.088 87.0883 145 102 145C116.912 145 129 157.088 129 172Z" fill="#F05365"/>
<path d="M167 31C167 37.6274 161.627 43 155 43C148.373 43 143 37.6274 143 31C143 24.3726 148.373 19 155 19C161.627 19 167 24.3726 167 31Z" fill="#F05365"/>
<path d="M192 66C192 70.4183 188.418 74 184 74C179.582 74 176 70.4183 176 66C176 61.5817 179.582 58 184 58C188.418 58 192 61.5817 192 66Z" fill="#F05365"/>
<path d="M173 172C173 178.627 167.627 184 161 184C154.373 184 149 178.627 149 172C149 165.373 154.373 160 161 160C167.627 160 173 165.373 173 172Z" fill="#F05365"/>
<path d="M70 63C70 64.6569 68.6569 66 67 66C65.3431 66 64 64.6569 64 63C64 61.3431 65.3431 60 67 60C68.6569 60 70 61.3431 70 63Z" fill="#F05365"/>
<path d="M21 87C21 88.6569 19.6569 90 18 90C16.3431 90 15 88.6569 15 87C15 85.3431 16.3431 84 18 84C19.6569 84 21 85.3431 21 87Z" fill="#F05365"/>
<path d="M64 158C64 162.971 59.9706 167 55 167C50.0294 167 46 162.971 46 158C46 153.029 50.0294 149 55 149C59.9706 149 64 153.029 64 158Z" fill="#F05365"/>
<path d="M218 31C218 35.9706 213.971 40 209 40C204.029 40 200 35.9706 200 31C200 26.0294 204.029 22 209 22C213.971 22 218 26.0294 218 31Z" fill="#F05365"/>
<path d="M207 200C207 204.971 202.971 209 198 209C193.029 209 189 204.971 189 200C189 195.029 193.029 191 198 191C202.971 191 207 195.029 207 200Z" fill="#F05365"/>
<path d="M80 207C80 211.418 76.4183 215 72 215C67.5817 215 64 211.418 64 207C64 202.582 67.5817 199 72 199C76.4183 199 80 202.582 80 207Z" fill="#F05365"/>
<path d="M117 125C117 129.418 113.418 133 109 133C104.582 133 101 129.418 101 125C101 120.582 104.582 117 109 117C113.418 117 117 120.582 117 125Z" fill="#F05365"/>
<path d="M149 204C149 208.418 145.418 212 141 212C136.582 212 133 208.418 133 204C133 199.582 136.582 196 141 196C145.418 196 149 199.582 149 204Z" fill="#F05365"/>
<path d="M194 143C194 145.209 192.209 147 190 147C187.791 147 186 145.209 186 143C186 140.791 187.791 139 190 139C192.209 139 194 140.791 194 143Z" fill="#F05365"/>
<path d="M209 91C209 93.2091 207.209 95 205 95C202.791 95 201 93.2091 201 91C201 88.7909 202.791 87 205 87C207.209 87 209 88.7909 209 91Z" fill="#F05365"/>
<path d="M241 143C241 145.209 239.209 147 237 147C234.791 147 233 145.209 233 143C233 140.791 234.791 139 237 139C239.209 139 241 140.791 241 143Z" fill="#F05365"/>
<path d="M291 55C291 57.2091 289.209 59 287 59C284.791 59 283 57.2091 283 55C283 52.7909 284.791 51 287 51C289.209 51 291 52.7909 291 55Z" fill="#F05365"/>
<path d="M1132 105C1132 122.121 1145.88 136 1163 136C1180.12 136 1194 122.121 1194 105C1194 87.8792 1180.12 74 1163 74C1145.88 74 1132 87.8792 1132 105Z" fill="#F05365"/>
<path d="M1068 126C1068 133.18 1073.82 139 1081 139C1088.18 139 1094 133.18 1094 126C1094 118.82 1088.18 113 1081 113C1073.82 113 1068 118.82 1068 126Z" fill="#F05365"/>
<path d="M1112 31C1112 42.0457 1120.95 51 1132 51C1143.05 51 1152 42.0457 1152 31C1152 19.9543 1143.05 11 1132 11C1120.95 11 1112 19.9543 1112 31Z" fill="#F05365"/>
<path d="M1167 192C1167 203.046 1175.95 212 1187 212C1198.05 212 1207 203.046 1207 192C1207 180.954 1198.05 172 1187 172C1175.95 172 1167 180.954 1167 192Z" fill="#F05365"/>
<path d="M1194 143C1194 161.225 1208.77 176 1227 176C1245.23 176 1260 161.225 1260 143C1260 124.775 1245.23 110 1227 110C1208.77 110 1194 124.775 1194 143Z" fill="#F05365"/>
<path d="M1218 199C1218 205.627 1223.37 211 1230 211C1236.63 211 1242 205.627 1242 199C1242 192.373 1236.63 187 1230 187C1223.37 187 1218 192.373 1218 199Z" fill="#F05365"/>
<path d="M1213 93C1213 95.7614 1215.24 98 1218 98C1220.76 98 1223 95.7614 1223 93C1223 90.2386 1220.76 88 1218 88C1215.24 88 1213 90.2386 1213 93Z" fill="#F05365"/>
<path d="M1235 71C1235 73.7614 1237.24 76 1240 76C1242.76 76 1245 73.7614 1245 71C1245 68.2386 1242.76 66 1240 66C1237.24 66 1235 68.2386 1235 71Z" fill="#F05365"/>
<path d="M1152 56C1152 58.7614 1154.24 61 1157 61C1159.76 61 1162 58.7614 1162 56C1162 53.2386 1159.76 51 1157 51C1154.24 51 1152 53.2386 1152 56Z" fill="#F05365"/>
<path d="M1158 150C1158 152.761 1160.24 155 1163 155C1165.76 155 1168 152.761 1168 150C1168 147.239 1165.76 145 1163 145C1160.24 145 1158 147.239 1158 150Z" fill="#F05365"/>
<path d="M1024 117C1024 120.866 1027.13 124 1031 124C1034.87 124 1038 120.866 1038 117C1038 113.134 1034.87 110 1031 110C1027.13 110 1024 113.134 1024 117Z" fill="#F05365"/>
<path d="M1163 22C1163 46.3005 1182.7 66 1207 66C1231.3 66 1251 46.3005 1251 22C1251 -2.30053 1231.3 -22 1207 -22C1182.7 -22 1163 -2.30053 1163 22Z" fill="#F05365"/>
<path d="M1067 74C1067 88.9117 1079.09 101 1094 101C1108.91 101 1121 88.9117 1121 74C1121 59.0883 1108.91 47 1094 47C1079.09 47 1067 59.0883 1067 74Z" fill="#F05365"/>
<path d="M1093 172C1093 186.912 1105.09 199 1120 199C1134.91 199 1147 186.912 1147 172C1147 157.088 1134.91 145 1120 145C1105.09 145 1093 157.088 1093 172Z" fill="#F05365"/>
<path d="M1055 31C1055 37.6274 1060.37 43 1067 43C1073.63 43 1079 37.6274 1079 31C1079 24.3726 1073.63 19 1067 19C1060.37 19 1055 24.3726 1055 31Z" fill="#F05365"/>
<path d="M1030 66C1030 70.4183 1033.58 74 1038 74C1042.42 74 1046 70.4183 1046 66C1046 61.5817 1042.42 58 1038 58C1033.58 58 1030 61.5817 1030 66Z" fill="#F05365"/>
<path d="M1049 172C1049 178.627 1054.37 184 1061 184C1067.63 184 1073 178.627 1073 172C1073 165.373 1067.63 160 1061 160C1054.37 160 1049 165.373 1049 172Z" fill="#F05365"/>
<path d="M1142 207C1142 211.418 1145.58 215 1150 215C1154.42 215 1158 211.418 1158 207C1158 202.582 1154.42 199 1150 199C1145.58 199 1142 202.582 1142 207Z" fill="#F05365"/>
<path d="M1105 125C1105 129.418 1108.58 133 1113 133C1117.42 133 1121 129.418 1121 125C1121 120.582 1117.42 117 1113 117C1108.58 117 1105 120.582 1105 125Z" fill="#F05365"/>
<path d="M1073 204C1073 208.418 1076.58 212 1081 212C1085.42 212 1089 208.418 1089 204C1089 199.582 1085.42 196 1081 196C1076.58 196 1073 199.582 1073 204Z" fill="#F05365"/>
<path d="M1028 143C1028 145.209 1029.79 147 1032 147C1034.21 147 1036 145.209 1036 143C1036 140.791 1034.21 139 1032 139C1029.79 139 1028 140.791 1028 143Z" fill="#F05365"/>
<path d="M958 47C958 49.2091 959.791 51 962 51C964.209 51 966 49.2091 966 47C966 44.7909 964.209 43 962 43C959.791 43 958 44.7909 958 47Z" fill="#F05365"/>
<path d="M901 192C901 194.209 902.791 196 905 196C907.209 196 909 194.209 909 192C909 189.791 907.209 188 905 188C902.791 188 901 189.791 901 192Z" fill="#F05365"/>
<path d="M977 145C977 147.209 978.791 149 981 149C983.209 149 985 147.209 985 145C985 142.791 983.209 141 981 141C978.791 141 977 142.791 977 145Z" fill="#F05365"/>
<path d="M877 109C877 111.209 878.791 113 881 113C883.209 113 885 111.209 885 109C885 106.791 883.209 105 881 105C878.791 105 877 106.791 877 109Z" fill="#F05365"/>
<path d="M1013 91C1013 93.2091 1014.79 95 1017 95C1019.21 95 1021 93.2091 1021 91C1021 88.7909 1019.21 87 1017 87C1014.79 87 1013 88.7909 1013 91Z" fill="#F05365"/>
<path d="M179 220C179 222.761 176.761 225 174 225C171.239 225 169 222.761 169 220C169 217.239 171.239 215 174 215C176.761 215 179 217.239 179 220Z" fill="#F05365"/>
<path d="M121 210C121 212.761 118.761 215 116 215C113.239 215 111 212.761 111 210C111 207.239 113.239 205 116 205C118.761 205 121 207.239 121 210Z" fill="#F05365"/>
<path d="M108 100C108 102.761 105.761 105 103 105C100.239 105 98 102.761 98 100C98 97.2386 100.239 95 103 95C105.761 95 108 97.2386 108 100Z" fill="#F05365"/>
</svg>
