<svg width="814" height="521" viewBox="0 0 814 521" fill="none" xmlns="http://www.w3.org/2000/svg">
<path d="M5 33C15 42.5 69 96 109 138M109 34.5C100.2 38.1 36 105.333 5 138.5" stroke="#C70039" stroke-width="10" stroke-linecap="round"/>
<path d="M253 204.5C253 233.495 229.495 257 200.5 257C171.505 257 148 233.495 148 204.5C148 175.505 171.505 152 200.5 152C229.495 152 253 175.505 253 204.5ZM156.106 204.5C156.106 229.018 175.982 248.894 200.5 248.894C225.018 248.894 244.894 229.018 244.894 204.5C244.894 179.982 225.018 160.106 200.5 160.106C175.982 160.106 156.106 179.982 156.106 204.5Z" fill="#FA6F57"/>
<rect x="4" y="152.5" width="105" height="105" fill="#F5C887"/>
<path d="M200.5 139L140.311 34.75L260.689 34.75L200.5 139Z" fill="#F1A63B"/>
<path d="M277 33C287 42.5 341 96 381 138M381 34.5C372.2 38.1 308 105.333 277 138.5" stroke="#C70039" stroke-width="10" stroke-linecap="round"/>
<path d="M525 204.5C525 233.495 501.495 257 472.5 257C443.505 257 420 233.495 420 204.5C420 175.505 443.505 152 472.5 152C501.495 152 525 175.505 525 204.5ZM428.106 204.5C428.106 229.018 447.982 248.894 472.5 248.894C497.018 248.894 516.894 229.018 516.894 204.5C516.894 179.982 497.018 160.106 472.5 160.106C447.982 160.106 428.106 179.982 428.106 204.5Z" fill="#FA6F57"/>
<rect x="276" y="152.5" width="105" height="105" fill="#F5C887"/>
<path d="M472.5 139L412.311 34.75L532.689 34.75L472.5 139Z" fill="#F1A63B"/>
<path d="M549 33C559 42.5 613 96 653 138M653 34.5C644.2 38.1 580 105.333 549 138.5" stroke="#C70039" stroke-width="10" stroke-linecap="round"/>
<path d="M797 204.5C797 233.495 773.495 257 744.5 257C715.505 257 692 233.495 692 204.5C692 175.505 715.505 152 744.5 152C773.495 152 797 175.505 797 204.5ZM700.106 204.5C700.106 229.018 719.982 248.894 744.5 248.894C769.018 248.894 788.894 229.018 788.894 204.5C788.894 179.982 769.018 160.106 744.5 160.106C719.982 160.106 700.106 179.982 700.106 204.5Z" fill="#FA6F57"/>
<rect x="548" y="152.5" width="105" height="105" fill="#F5C887"/>
<path d="M744.5 139L684.311 34.75L804.689 34.75L744.5 139Z" fill="#F1A63B"/>
<path d="M5 296.5C15 306 69 359.5 109 401.5M109 298C100.2 301.6 36 368.833 5 402" stroke="#C70039" stroke-width="10" stroke-linecap="round"/>
<path d="M253 468C253 496.995 229.495 520.5 200.5 520.5C171.505 520.5 148 496.995 148 468C148 439.005 171.505 415.5 200.5 415.5C229.495 415.5 253 439.005 253 468ZM156.106 468C156.106 492.518 175.982 512.394 200.5 512.394C225.018 512.394 244.894 492.518 244.894 468C244.894 443.482 225.018 423.606 200.5 423.606C175.982 423.606 156.106 443.482 156.106 468Z" fill="#FA6F57"/>
<rect x="4" y="416" width="105" height="105" fill="#F5C887"/>
<path d="M200.5 402.5L140.311 298.25L260.689 298.25L200.5 402.5Z" fill="#F1A63B"/>
<path d="M277 296.5C287 306 341 359.5 381 401.5M381 298C372.2 301.6 308 368.833 277 402" stroke="#C70039" stroke-width="10" stroke-linecap="round"/>
<path d="M525 468C525 496.995 501.495 520.5 472.5 520.5C443.505 520.5 420 496.995 420 468C420 439.005 443.505 415.5 472.5 415.5C501.495 415.5 525 439.005 525 468ZM428.106 468C428.106 492.518 447.982 512.394 472.5 512.394C497.018 512.394 516.894 492.518 516.894 468C516.894 443.482 497.018 423.606 472.5 423.606C447.982 423.606 428.106 443.482 428.106 468Z" fill="#FA6F57"/>
<rect x="276" y="416" width="105" height="105" fill="#F5C887"/>
<path d="M472.5 402.5L412.311 298.25L532.689 298.25L472.5 402.5Z" fill="#F1A63B"/>
<path d="M549 296.5C559 306 613 359.5 653 401.5M653 298C644.2 301.6 580 368.833 549 402" stroke="#C70039" stroke-width="10" stroke-linecap="round"/>
<path d="M797 468C797 496.995 773.495 520.5 744.5 520.5C715.505 520.5 692 496.995 692 468C692 439.005 715.505 415.5 744.5 415.5C773.495 415.5 797 439.005 797 468ZM700.106 468C700.106 492.518 719.982 512.394 744.5 512.394C769.018 512.394 788.894 492.518 788.894 468C788.894 443.482 769.018 423.606 744.5 423.606C719.982 423.606 700.106 443.482 700.106 468Z" fill="#FA6F57"/>
<rect x="548" y="416" width="105" height="105" fill="#F5C887"/>
<path d="M744.5 402.5L684.311 298.25L804.689 298.25L744.5 402.5Z" fill="#F1A63B"/>
</svg>
