<svg width="72" height="83" viewBox="0 0 72 83" fill="none" xmlns="http://www.w3.org/2000/svg">
<path d="M49.0068 35.0413C52.8382 31.5703 55.2475 26.5389 55.2475 20.9409C55.2475 10.4687 46.8163 1.97933 36.4158 1.97933C26.0154 1.97933 17.5842 10.4687 17.5842 20.9409C17.5842 21.1225 17.5867 21.3035 17.5917 21.4839C7.37023 24.9104 0 34.6203 0 46.0634C0 51.3044 1.54601 56.1818 4.20389 60.2584C3.34245 61.8104 2.85149 63.5992 2.85149 65.5035C2.85149 71.4498 7.63894 76.2703 13.5446 76.2703C17.1452 76.2703 20.3301 74.4784 22.2678 71.7319C23.3979 71.8847 24.5512 71.9635 25.7228 71.9635C31.1977 71.9635 36.2731 70.2413 40.4438 67.3055C43.258 72.6386 48.8316 76.2703 55.2475 76.2703C64.4997 76.2703 72 68.7182 72 59.4023C72 50.0863 64.4997 42.5343 55.2475 42.5343C53.8767 42.5343 52.5443 42.7001 51.269 43.0128C50.9403 40.1921 50.1615 37.51 49.0068 35.0413Z" fill="white"/>
<path d="M6.76243 79.6351C6.76243 81.4935 5.24861 83 3.38122 83C1.51382 83 0 81.4935 0 79.6351C0 77.7768 1.51382 76.2703 3.38122 76.2703C5.24861 76.2703 6.76243 77.7768 6.76243 79.6351Z" fill="white"/>
<path d="M60.3315 3.82671C60.3315 5.94014 58.6989 7.65342 56.6851 7.65342C54.6712 7.65342 53.0387 5.94014 53.0387 3.82671C53.0387 1.71328 54.6712 0 56.6851 0C58.6989 0 60.3315 1.71328 60.3315 3.82671Z" fill="white"/>
</svg>
