<svg width="50" height="57" viewBox="0 0 50 57" fill="none" xmlns="http://www.w3.org/2000/svg">
<path d="M34.0325 24.0645C36.6932 21.6808 38.3663 18.2255 38.3663 14.3811C38.3663 7.18935 32.5113 1.3593 25.2888 1.3593C18.0662 1.3593 12.2112 7.18935 12.2112 14.3811C12.2112 14.5058 12.213 14.6301 12.2165 14.754C5.11822 17.1071 0 23.7754 0 31.6339C0 35.2331 1.07362 38.5827 2.91937 41.3823C2.32115 42.4481 1.9802 43.6766 1.9802 44.9843C1.9802 49.0679 5.30482 52.3784 9.40594 52.3784C11.9064 52.3784 14.1181 51.1478 15.4638 49.2617C16.2485 49.3666 17.0494 49.4207 17.863 49.4207C21.6651 49.4207 25.1897 48.238 28.086 46.2218C30.0403 49.8843 33.9108 52.3784 38.3663 52.3784C44.7914 52.3784 50 47.192 50 40.7943C50 34.3966 44.7914 29.2103 38.3663 29.2103C37.4143 29.2103 36.4891 29.3242 35.6035 29.5389C35.3752 27.6018 34.8344 25.7599 34.0325 24.0645Z" fill="black"/>
<path d="M4.69613 54.6892C4.69613 55.9654 3.64487 57 2.34807 57C1.05127 57 0 55.9654 0 54.6892C0 53.413 1.05127 52.3784 2.34807 52.3784C3.64487 52.3784 4.69613 53.413 4.69613 54.6892Z" fill="black"/>
<path d="M41.8969 2.62798C41.8969 4.07937 40.7632 5.25596 39.3646 5.25596C37.9661 5.25596 36.8324 4.07937 36.8324 2.62798C36.8324 1.17659 37.9661 0 39.3646 0C40.7632 0 41.8969 1.17659 41.8969 2.62798Z" fill="black"/>
</svg>
